<?xml version="1.0" encoding="UTF-8" standalone="no"?>
<!-- Generator: Adobe Illustrator 19.0.0, SVG Export Plug-In . SVG Version: 6.00 Build 0)  -->

<svg
   xmlns:dc="http://purl.org/dc/elements/1.1/"
   xmlns:cc="http://creativecommons.org/ns#"
   xmlns:rdf="http://www.w3.org/1999/02/22-rdf-syntax-ns#"
   xmlns:svg="http://www.w3.org/2000/svg"
   xmlns="http://www.w3.org/2000/svg"
   xmlns:sodipodi="http://sodipodi.sourceforge.net/DTD/sodipodi-0.dtd"
   xmlns:inkscape="http://www.inkscape.org/namespaces/inkscape"
   version="1.1"
   id="Layer_1"
   x="0px"
   y="0px"
   viewBox="0 0 87 113"
   xml:space="preserve"
   sodipodi:docname="10s.svg"
   width="87"
   height="113"
   inkscape:version="0.92.1 r15371"><metadata
     id="metadata200"><rdf:RDF><cc:Work
         rdf:about=""><dc:format>image/svg+xml</dc:format><dc:type
           rdf:resource="http://purl.org/dc/dcmitype/StillImage" /><dc:title></dc:title></cc:Work></rdf:RDF></metadata><defs
     id="defs198" /><sodipodi:namedview
     pagecolor="#ffffff"
     bordercolor="#666666"
     borderopacity="1"
     objecttolerance="10"
     gridtolerance="10"
     guidetolerance="10"
     inkscape:pageopacity="0"
     inkscape:pageshadow="2"
     inkscape:window-width="1978"
     inkscape:window-height="1098"
     id="namedview196"
     showgrid="false"
     inkscape:zoom="7.375"
     inkscape:cx="50.673486"
     inkscape:cy="78.867004"
     inkscape:window-x="0"
     inkscape:window-y="0"
     inkscape:window-maximized="0"
     inkscape:current-layer="g163" /><g
     id="g163"
     transform="matrix(0.19959111,0,0,0.1953125,-7.5953242,6.5)"><path
       style="fill:#e6eef4;stroke:#000000;stroke-opacity:1;stroke-width:6.58427158;stroke-miterlimit:4;stroke-dasharray:none"
       d="M 423.724,0 H 88.276 C 78.522,0 70.621,7.901 70.621,17.655 v 476.69 c 0,9.754 7.901,17.655 17.655,17.655 h 335.448 c 9.754,0 17.655,-7.901 17.655,-17.655 V 17.655 C 441.379,7.901 433.479,0 423.724,0"
       id="path151"
       inkscape:connector-curvature="0" /><g
       id="g161"><path
         d="m 97.103,141.241 c 0,4.875 3.952,8.828 8.828,8.828 4.875,0 8.828,-3.952 8.828,-8.828 V 35.31 c 0,-4.875 -3.952,-8.828 -8.828,-8.828 -4.875,0 -8.828,3.952 -8.828,8.828 z"
         id="path153"
         inkscape:connector-curvature="0" /><path
         d="m 132.414,61.793 v 52.966 c 0,19.441 15.869,35.31 35.31,35.31 19.441,0 35.31,-15.869 35.31,-35.31 V 61.793 c 0,-19.441 -15.869,-35.31 -35.31,-35.31 -19.441,0 -35.31,15.869 -35.31,35.31 z m 52.965,0 v 52.966 c 0,9.69 -7.965,17.655 -17.655,17.655 -9.69,0 -17.655,-7.965 -17.655,-17.655 V 61.793 c 0,-9.69 7.965,-17.655 17.655,-17.655 9.69,0 17.655,7.965 17.655,17.655 z"
         id="path155"
         inkscape:connector-curvature="0" /><path
         d="m 282.483,361.931 v 0 c 0,0 44.323,44.323 79.448,-8.828 18.282,-27.666 5.888,-54.616 -13.603,-73.242 l -83.906,-82.635 c -4.723,-4.025 -11.979,-4.025 -16.711,0 l -85.124,82.635 c -16.746,17.523 -31.011,45.506 -12.518,73.242 35.31,52.966 79.448,8.828 79.448,8.828 0,22.625 -6.444,51.703 -8.324,59.683 -0.256,1.112 0.6,2.11 1.739,2.11 h 66.145 c 1.139,0 1.986,-0.997 1.73,-2.101 -1.871,-8.006 -8.324,-37.208 -8.324,-59.692"
         id="path157"
         inkscape:connector-curvature="0" /><path
         d="m 114.759,35.31 c 0,-4.875 -3.952,-8.828 -8.828,-8.828 -4.875,0 -8.828,3.952 -8.828,8.828 v 8.828 c 0,4.875 3.952,8.828 8.828,8.828 4.875,0 8.828,-3.952 8.828,-8.828 z"
         id="path159"
         inkscape:connector-curvature="0" /></g></g><g
     id="g165"
     transform="translate(0,-399)" /><g
     id="g167"
     transform="translate(0,-399)" /><g
     id="g169"
     transform="translate(0,-399)" /><g
     id="g171"
     transform="translate(0,-399)" /><g
     id="g173"
     transform="translate(0,-399)" /><g
     id="g175"
     transform="translate(0,-399)" /><g
     id="g177"
     transform="translate(0,-399)" /><g
     id="g179"
     transform="translate(0,-399)" /><g
     id="g181"
     transform="translate(0,-399)" /><g
     id="g183"
     transform="translate(0,-399)" /><g
     id="g185"
     transform="translate(0,-399)" /><g
     id="g187"
     transform="translate(0,-399)" /><g
     id="g189"
     transform="translate(0,-399)" /><g
     id="g191"
     transform="translate(0,-399)" /><g
     id="g193"
     transform="translate(0,-399)" /></svg>