<?xml version="1.0" encoding="UTF-8" standalone="no"?>
<!-- Generator: Adobe Illustrator 19.0.0, SVG Export Plug-In . SVG Version: 6.00 Build 0)  -->

<svg
   xmlns:dc="http://purl.org/dc/elements/1.1/"
   xmlns:cc="http://creativecommons.org/ns#"
   xmlns:rdf="http://www.w3.org/1999/02/22-rdf-syntax-ns#"
   xmlns:svg="http://www.w3.org/2000/svg"
   xmlns="http://www.w3.org/2000/svg"
   xmlns:sodipodi="http://sodipodi.sourceforge.net/DTD/sodipodi-0.dtd"
   xmlns:inkscape="http://www.inkscape.org/namespaces/inkscape"
   version="1.1"
   id="Layer_1"
   x="0px"
   y="0px"
   viewBox="0 0 87 113"
   xml:space="preserve"
   sodipodi:docname="2h.svg"
   width="87"
   height="113"
   inkscape:version="0.92.1 r15371"><metadata
     id="metadata49"><rdf:RDF><cc:Work
         rdf:about=""><dc:format>image/svg+xml</dc:format><dc:type
           rdf:resource="http://purl.org/dc/dcmitype/StillImage" /><dc:title></dc:title></cc:Work></rdf:RDF></metadata><defs
     id="defs47" /><sodipodi:namedview
     pagecolor="#ffffff"
     bordercolor="#666666"
     borderopacity="1"
     objecttolerance="10"
     gridtolerance="10"
     guidetolerance="10"
     inkscape:pageopacity="0"
     inkscape:pageshadow="2"
     inkscape:window-width="2353"
     inkscape:window-height="1377"
     id="namedview45"
     showgrid="false"
     inkscape:zoom="7.3750001"
     inkscape:cx="29.37535"
     inkscape:cy="39.335945"
     inkscape:window-x="0"
     inkscape:window-y="0"
     inkscape:window-maximized="0"
     inkscape:current-layer="g12" /><g
     id="g12"
     transform="matrix(0.19959111,0,0,0.1953125,-7.5953242,6.5)"><path
       style="fill:#e6eef4;stroke:#000000;stroke-opacity:1;stroke-width:6.58427158;stroke-miterlimit:4;stroke-dasharray:none"
       d="M 423.724,0 H 88.276 C 78.522,0 70.621,7.901 70.621,17.655 v 476.69 c 0,9.754 7.901,17.655 17.655,17.655 h 335.448 c 9.754,0 17.655,-7.901 17.655,-17.655 V 17.655 C 441.379,7.901 433.479,0 423.724,0"
       id="path2"
       inkscape:connector-curvature="0" /><g
       id="g10"><path
         style="fill:#d71e00"
         d="m 256,238.345 c 9.507,-24.214 29.625,-44.138 54.881,-44.138 21.257,0 40.201,9.993 52.966,26.483 16.013,20.692 27.33,66.754 -7.715,101.8 C 338.353,340.268 256,423.724 256,423.724 c 0,0 -82.353,-83.456 -100.131,-101.235 -35.046,-35.046 -23.729,-81.108 -7.715,-101.8 12.765,-16.49 31.709,-26.483 52.966,-26.483 25.255,0.001 45.373,19.925 54.88,44.139"
         id="path4"
         inkscape:connector-curvature="0" /><path
         style="fill:#d71e00"
         d="m 150.069,141.241 8.828,-8.828 h -52.966 c -4.875,0 -8.828,3.952 -8.828,8.828 0,4.876 3.952,8.828 8.828,8.828 h 52.966 c 4.875,0 8.828,-3.952 8.828,-8.828 v -8.828 c 0,-4.875 -3.952,-8.828 -8.828,-8.828 -4.876,0 -8.828,3.952 -8.828,8.828 z"
         id="path6"
         inkscape:connector-curvature="0" /><path
         style="fill:#d71e00"
         d="m 155.813,81.484 2.335,-2.758 0.608,-0.807 C 172.982,56.58 158.642,26.909 133.002,26.485 l -0.588,-10e-4 c -19.503,0 -35.31,15.808 -35.31,35.31 0,4.875 3.952,8.828 8.828,8.828 4.875,0 8.828,-3.952 8.828,-8.828 0,-9.752 7.903,-17.655 17.655,-17.655 h 0.441 c 11.188,0.187 17.866,14.003 11.211,23.987 l 7.345,4.897 -6.737,-5.704 -2.339,2.763 c -17.382,20.563 -32.248,43.121 -44.298,67.212 -2.181,4.36 -0.414,9.663 3.946,11.844 4.36,2.181 9.663,0.414 11.844,-3.946 11.421,-22.839 25.513,-44.222 41.985,-63.708 z"
         id="path8"
         inkscape:connector-curvature="0" /></g></g><g
     id="g14"
     transform="translate(0,-399)" /><g
     id="g16"
     transform="translate(0,-399)" /><g
     id="g18"
     transform="translate(0,-399)" /><g
     id="g20"
     transform="translate(0,-399)" /><g
     id="g22"
     transform="translate(0,-399)" /><g
     id="g24"
     transform="translate(0,-399)" /><g
     id="g26"
     transform="translate(0,-399)" /><g
     id="g28"
     transform="translate(0,-399)" /><g
     id="g30"
     transform="translate(0,-399)" /><g
     id="g32"
     transform="translate(0,-399)" /><g
     id="g34"
     transform="translate(0,-399)" /><g
     id="g36"
     transform="translate(0,-399)" /><g
     id="g38"
     transform="translate(0,-399)" /><g
     id="g40"
     transform="translate(0,-399)" /><g
     id="g42"
     transform="translate(0,-399)" /></svg>