<?xml version="1.0" encoding="UTF-8" standalone="no"?>
<!-- Generator: Adobe Illustrator 19.0.0, SVG Export Plug-In . SVG Version: 6.00 Build 0)  -->

<svg
   xmlns:dc="http://purl.org/dc/elements/1.1/"
   xmlns:cc="http://creativecommons.org/ns#"
   xmlns:rdf="http://www.w3.org/1999/02/22-rdf-syntax-ns#"
   xmlns:svg="http://www.w3.org/2000/svg"
   xmlns="http://www.w3.org/2000/svg"
   xmlns:sodipodi="http://sodipodi.sourceforge.net/DTD/sodipodi-0.dtd"
   xmlns:inkscape="http://www.inkscape.org/namespaces/inkscape"
   version="1.1"
   id="Layer_1"
   x="0px"
   y="0px"
   viewBox="0 0 87 113"
   xml:space="preserve"
   sodipodi:docname="Ah.svg"
   width="87"
   height="113"
   inkscape:version="0.92.1 r15371"><metadata
     id="metadata49"><rdf:RDF><cc:Work
         rdf:about=""><dc:format>image/svg+xml</dc:format><dc:type
           rdf:resource="http://purl.org/dc/dcmitype/StillImage" /><dc:title></dc:title></cc:Work></rdf:RDF></metadata><defs
     id="defs47" /><sodipodi:namedview
     pagecolor="#ffffff"
     bordercolor="#666666"
     borderopacity="1"
     objecttolerance="10"
     gridtolerance="10"
     guidetolerance="10"
     inkscape:pageopacity="0"
     inkscape:pageshadow="2"
     inkscape:window-width="1868"
     inkscape:window-height="1313"
     id="namedview45"
     showgrid="false"
     inkscape:zoom="10.429825"
     inkscape:cx="51.369741"
     inkscape:cy="81.901363"
     inkscape:window-x="0"
     inkscape:window-y="0"
     inkscape:window-maximized="0"
     inkscape:current-layer="g12" /><g
     id="g12"
     transform="matrix(0.19959111,0,0,0.1953125,-7.5953242,6.5)"><path
       style="fill:#e6eef4;stroke:#000000;stroke-opacity:1;stroke-width:6.58427158;stroke-miterlimit:4;stroke-dasharray:none"
       d="M 423.724,0 H 88.276 C 78.522,0 70.621,7.901 70.621,17.655 v 476.69 c 0,9.754 7.901,17.655 17.655,17.655 h 335.448 c 9.754,0 17.655,-7.901 17.655,-17.655 V 17.655 C 441.379,7.901 433.479,0 423.724,0"
       id="path2"
       inkscape:connector-curvature="0" /><g
       id="g10"><path
         style="fill:#d71e00"
         d="m 256,238.345 c 9.507,-24.214 29.625,-44.138 54.881,-44.138 21.257,0 40.201,9.993 52.966,26.483 16.013,20.692 27.33,66.754 -7.715,101.8 C 338.353,340.268 256,423.724 256,423.724 c 0,0 -82.353,-83.456 -100.131,-101.235 -35.046,-35.046 -23.729,-81.108 -7.715,-101.8 12.765,-16.49 31.709,-26.483 52.966,-26.483 25.255,0.001 45.373,19.925 54.88,44.139"
         id="path4"
         inkscape:connector-curvature="0" /><path
         style="fill:#d71e00"
         d="m 149.616,32.519 c -2.683,-8.048 -14.066,-8.048 -16.749,0 L 97.556,138.45 c -1.542,4.625 0.958,9.624 5.583,11.166 4.625,1.542 9.624,-0.958 11.166,-5.583 l 35.31,-105.931 h -16.749 l 35.31,105.931 c 1.542,4.625 6.541,7.125 11.166,5.583 4.625,-1.542 7.125,-6.541 5.583,-11.166 z"
         id="path6"
         inkscape:connector-curvature="0" /><path
         style="fill:#d71e00"
         d="m 158.897,114.759 c 4.875,0 8.828,-3.952 8.828,-8.828 0,-4.875 -3.952,-8.828 -8.828,-8.828 h -35.31 c -4.875,0 -8.828,3.952 -8.828,8.828 0,4.875 3.952,8.828 8.828,8.828 z"
         id="path8"
         inkscape:connector-curvature="0" /></g></g><g
     id="g14"
     transform="translate(0,-399)" /><g
     id="g16"
     transform="translate(0,-399)" /><g
     id="g18"
     transform="translate(0,-399)" /><g
     id="g20"
     transform="translate(0,-399)" /><g
     id="g22"
     transform="translate(0,-399)" /><g
     id="g24"
     transform="translate(0,-399)" /><g
     id="g26"
     transform="translate(0,-399)" /><g
     id="g28"
     transform="translate(0,-399)" /><g
     id="g30"
     transform="translate(0,-399)" /><g
     id="g32"
     transform="translate(0,-399)" /><g
     id="g34"
     transform="translate(0,-399)" /><g
     id="g36"
     transform="translate(0,-399)" /><g
     id="g38"
     transform="translate(0,-399)" /><g
     id="g40"
     transform="translate(0,-399)" /><g
     id="g42"
     transform="translate(0,-399)" /></svg>