<?xml version="1.0" encoding="UTF-8" standalone="no"?>
<!-- Generator: Adobe Illustrator 19.0.0, SVG Export Plug-In . SVG Version: 6.00 Build 0)  -->

<svg
   xmlns:dc="http://purl.org/dc/elements/1.1/"
   xmlns:cc="http://creativecommons.org/ns#"
   xmlns:rdf="http://www.w3.org/1999/02/22-rdf-syntax-ns#"
   xmlns:svg="http://www.w3.org/2000/svg"
   xmlns="http://www.w3.org/2000/svg"
   xmlns:sodipodi="http://sodipodi.sourceforge.net/DTD/sodipodi-0.dtd"
   xmlns:inkscape="http://www.inkscape.org/namespaces/inkscape"
   version="1.1"
   id="Layer_1"
   x="0px"
   y="0px"
   viewBox="0 0 87 113"
   xml:space="preserve"
   sodipodi:docname="cardback1.svg"
   width="87"
   height="113"
   inkscape:version="0.92.1 r15371"><metadata
     id="metadata63"><rdf:RDF><cc:Work
         rdf:about=""><dc:format>image/svg+xml</dc:format><dc:type
           rdf:resource="http://purl.org/dc/dcmitype/StillImage" /><dc:title></dc:title></cc:Work></rdf:RDF></metadata><defs
     id="defs61" /><sodipodi:namedview
     pagecolor="#ffffff"
     bordercolor="#666666"
     borderopacity="1"
     objecttolerance="10"
     gridtolerance="10"
     guidetolerance="10"
     inkscape:pageopacity="0"
     inkscape:pageshadow="2"
     inkscape:window-width="1907"
     inkscape:window-height="1330"
     id="namedview59"
     showgrid="false"
     inkscape:zoom="5.2149125"
     inkscape:cx="87.421986"
     inkscape:cy="71.650644"
     inkscape:window-x="0"
     inkscape:window-y="0"
     inkscape:window-maximized="0"
     inkscape:current-layer="g26" /><g
     id="g26"
     transform="matrix(0.19959111,0,0,0.1953125,-7.5953242,6.5)"><path
       style="fill:#e6eef4;stroke:#000000;stroke-opacity:1;stroke-width:6.58427158;stroke-miterlimit:4;stroke-dasharray:none"
       d="M 423.724,0 H 88.276 C 78.522,0 70.621,7.901 70.621,17.655 v 476.69 c 0,9.754 7.901,17.655 17.655,17.655 h 335.448 c 9.754,0 17.655,-7.901 17.655,-17.655 V 17.655 C 441.379,7.901 433.479,0 423.724,0"
       id="path2"
       inkscape:connector-curvature="0" /><g
       id="g24"><path
         style="fill:#d71e00"
         d="m 406.069,485.517 c 4.875,0 8.828,-3.952 8.828,-8.828 V 35.31 c 0,-4.875 -3.952,-8.828 -8.828,-8.828 H 105.931 c -4.875,0 -8.828,3.952 -8.828,8.828 v 441.38 c 0,4.875 3.952,8.828 8.828,8.828 H 406.069 Z M 114.759,476.69 V 35.31 l -8.828,8.828 h 300.138 l -8.828,-8.828 v 441.38 l 8.828,-8.828 H 105.931 Z"
         id="path4"
         inkscape:connector-curvature="0" /><path
         style="fill:#d71e00"
         d="m 99.691,104.376 c -3.447,3.447 -3.447,9.037 0,12.484 3.447,3.447 9.037,3.447 12.484,0 l 75.308,-75.308 c 3.447,-3.447 3.447,-9.037 0,-12.484 -3.447,-3.447 -9.037,-3.447 -12.484,0 z"
         id="path6"
         inkscape:connector-curvature="0" /><path
         style="fill:#d71e00"
         d="m 262.383,41.557 c 3.447,-3.447 3.447,-9.037 0,-12.484 -3.447,-3.447 -9.037,-3.447 -12.484,0 l -150.21,150.21 c -3.447,3.447 -3.447,9.037 0,12.484 3.447,3.447 9.037,3.447 12.484,0 z"
         id="path8"
         inkscape:connector-curvature="0" /><path
         style="fill:#d71e00"
         d="m 337.294,41.551 c 3.447,-3.447 3.447,-9.037 0,-12.484 -3.447,-3.447 -9.037,-3.447 -12.484,0 L 99.689,254.188 c -3.447,3.447 -3.447,9.037 0,12.484 3.447,3.447 9.037,3.447 12.484,0 z"
         id="path10"
         inkscape:connector-curvature="0" /><path
         style="fill:#d71e00"
         d="m 412.196,41.553 c 3.447,-3.447 3.447,-9.037 0,-12.484 -3.447,-3.447 -9.037,-3.447 -12.484,0 L 99.689,329.092 c -3.447,3.447 -3.447,9.037 0,12.484 3.447,3.447 9.037,3.447 12.484,0 z"
         id="path12"
         inkscape:connector-curvature="0" /><path
         style="fill:#d71e00"
         d="m 412.311,116.342 c 3.447,-3.447 3.447,-9.037 0,-12.484 -3.447,-3.447 -9.037,-3.447 -12.484,0 L 99.689,403.996 c -3.447,3.447 -3.447,9.037 0,12.484 3.447,3.447 9.037,3.447 12.484,0 z"
         id="path14"
         inkscape:connector-curvature="0" /><path
         style="fill:#d71e00"
         d="m 412.315,191.244 c 3.447,-3.447 3.447,-9.037 0,-12.484 -3.447,-3.447 -9.037,-3.447 -12.484,0 L 114.797,463.793 c -3.447,3.447 -3.447,9.037 0,12.484 3.447,3.447 9.037,3.447 12.484,0 z"
         id="path16"
         inkscape:connector-curvature="0" /><path
         style="fill:#d71e00"
         d="m 183.048,470.447 c -3.447,3.447 -3.447,9.037 0,12.484 3.447,3.447 9.037,3.447 12.484,0 L 412.311,266.152 c 3.447,-3.447 3.447,-9.037 0,-12.484 -3.447,-3.447 -9.037,-3.447 -12.484,0 z"
         id="path18"
         inkscape:connector-curvature="0" /><path
         style="fill:#d71e00"
         d="m 257.95,470.449 c -3.447,3.447 -3.447,9.037 0,12.484 3.447,3.447 9.037,3.447 12.484,0 L 412.311,341.056 c 3.447,-3.447 3.447,-9.037 0,-12.484 -3.447,-3.447 -9.037,-3.447 -12.484,0 z"
         id="path20"
         inkscape:connector-curvature="0" /><path
         style="fill:#d71e00"
         d="m 412.315,415.957 c 3.447,-3.447 3.447,-9.037 0,-12.484 -3.447,-3.447 -9.037,-3.447 -12.484,0 l -66.975,66.975 c -3.447,3.447 -3.447,9.037 0,12.484 3.447,3.447 9.037,3.447 12.484,0 z"
         id="path22"
         inkscape:connector-curvature="0" /></g></g><g
     id="g28"
     transform="translate(0,-399)" /><g
     id="g30"
     transform="translate(0,-399)" /><g
     id="g32"
     transform="translate(0,-399)" /><g
     id="g34"
     transform="translate(0,-399)" /><g
     id="g36"
     transform="translate(0,-399)" /><g
     id="g38"
     transform="translate(0,-399)" /><g
     id="g40"
     transform="translate(0,-399)" /><g
     id="g42"
     transform="translate(0,-399)" /><g
     id="g44"
     transform="translate(0,-399)" /><g
     id="g46"
     transform="translate(0,-399)" /><g
     id="g48"
     transform="translate(0,-399)" /><g
     id="g50"
     transform="translate(0,-399)" /><g
     id="g52"
     transform="translate(0,-399)" /><g
     id="g54"
     transform="translate(0,-399)" /><g
     id="g56"
     transform="translate(0,-399)" /></svg>