<?xml version="1.0" encoding="UTF-8" standalone="no"?>
<!-- Generator: Adobe Illustrator 19.0.0, SVG Export Plug-In . SVG Version: 6.00 Build 0)  -->

<svg
   xmlns:dc="http://purl.org/dc/elements/1.1/"
   xmlns:cc="http://creativecommons.org/ns#"
   xmlns:rdf="http://www.w3.org/1999/02/22-rdf-syntax-ns#"
   xmlns:svg="http://www.w3.org/2000/svg"
   xmlns="http://www.w3.org/2000/svg"
   xmlns:sodipodi="http://sodipodi.sourceforge.net/DTD/sodipodi-0.dtd"
   xmlns:inkscape="http://www.inkscape.org/namespaces/inkscape"
   version="1.1"
   id="Capa_1"
   x="0px"
   y="0px"
   viewBox="0 0 512.083 512.083"
   style="enable-background:new 0 0 512.083 512.083;"
   xml:space="preserve"
   sodipodi:docname="contract.svg"
   inkscape:version="0.92.1 r15371"><metadata
     id="metadata73"><rdf:RDF><cc:Work
         rdf:about=""><dc:format>image/svg+xml</dc:format><dc:type
           rdf:resource="http://purl.org/dc/dcmitype/StillImage" /><dc:title></dc:title></cc:Work></rdf:RDF></metadata><defs
     id="defs71" /><sodipodi:namedview
     pagecolor="#ffffff"
     bordercolor="#666666"
     borderopacity="1"
     objecttolerance="10"
     gridtolerance="10"
     guidetolerance="10"
     inkscape:pageopacity="0"
     inkscape:pageshadow="2"
     inkscape:window-width="3326"
     inkscape:window-height="1480"
     id="namedview69"
     showgrid="false"
     inkscape:zoom="5.2159512"
     inkscape:cx="256.0415"
     inkscape:cy="390.58048"
     inkscape:window-x="0"
     inkscape:window-y="0"
     inkscape:window-maximized="0"
     inkscape:current-layer="g12" /><path
     style="fill:#D0CFCF;"
     d="M352.275,512.083H100.541L0.275,411.816V32.083c0-18.133,13.867-32,32-32h320  c18.133,0,32,13.867,32,32v448C384.275,498.216,370.408,512.083,352.275,512.083z"
     id="path2" /><g
     id="g12"><rect
       x="153.875"
       y="438.483"
       style="fill:#a2a2a2;fill-opacity:1"
       width="180.267"
       height="30.933"
       id="rect4" /><rect
       x="51.475"
       y="349.949"
       style="fill:#a2a2a2;fill-opacity:1"
       width="281.6"
       height="30.933"
       id="rect6" /><rect
       x="51.475"
       y="260.349"
       style="fill:#a2a2a2;fill-opacity:1"
       width="281.6"
       height="30.933"
       id="rect8" /><rect
       x="218.941"
       y="170.749"
       style="fill:#a2a2a2;fill-opacity:1"
       width="115.2"
       height="30.933"
       id="rect10" /></g><rect
     x="218.941"
     y="81.149"
     style="fill:#66C6B9;"
     width="115.2"
     height="30.933"
     id="rect14" /><path
     style="fill:#ADB3BA;"
     d="M100.541,512.083v-68.267c0-18.133-13.867-32-32-32H0.275L100.541,512.083z"
     id="path16" /><g
     id="g24"><circle
       style="fill:#415A6B;"
       cx="119.741"
       cy="85.416"
       r="35.2"
       id="circle18" /><path
       style="fill:#415A6B;"
       d="M186.941,201.683H51.475c0-37.333,29.867-68.267,68.267-68.267   C157.075,133.416,186.941,164.349,186.941,201.683z"
       id="path20" /><path
       style="fill:#415A6B;"
       d="M373.608,109.949c3.2,2.133,7.467,1.067,9.6-2.133c16-22.4,30.933-58.667,38.4-78.933   c1.067-2.133,3.2-3.2,4.267-4.267c2.133-1.067,4.267,0,6.4,1.067l18.133,11.733c3.2,2.133,7.467,1.067,9.6-2.133   c2.133-3.2,1.067-7.467-2.133-9.6l-18.133-11.733c-5.333-3.2-11.733-4.267-18.133-2.133c-6.4,2.133-10.667,6.4-12.8,12.8   c-7.467,19.2-22.4,55.467-37.333,75.733C369.341,103.549,370.408,107.816,373.608,109.949L373.608,109.949z"
       id="path22" /></g><path
     style="fill:#F3705A;"
     d="M322.408,317.949c24.533-23.467,45.867-49.067,62.933-77.867l71.467-114.133l-51.2-33.067  l-71.467,114.133c-18.133,28.8-32,58.667-42.667,90.667L322.408,317.949z"
     id="path26" /><path
     style="fill:#415A6B;"
     d="M294.675,285.949c-1.067,4.267-3.2,7.467-4.267,11.733l32,20.267c3.2-3.2,5.333-6.4,8.533-8.533  L294.675,285.949z"
     id="path28" /><path
     style="fill:#F3705A;"
     d="M454.675,15.016l-49.067,77.867l52.267,33.067l49.067-78.933c9.6-14.933,4.267-33.067-9.6-42.667l0,0  C483.475-4.184,464.275,0.083,454.675,15.016z"
     id="path30" /><rect
     x="424.285"
     y="79.458"
     transform="matrix(-0.5328 0.8462 -0.8462 -0.5328 755.2126 -196.1527)"
     style="fill:#415A6B;"
     width="14.933"
     height="61.865"
     id="rect32" /><polygon
     style="fill:#F7B64C;"
     points="293.608,299.816 274.408,316.883 269.075,368.083 312.808,341.416 319.208,316.883 "
     id="polygon34" /><circle
     style="fill:#FFFFFF;"
     cx="293.608"
     cy="328.616"
     r="4.267"
     id="circle36" /><g
     id="g38" /><g
     id="g40" /><g
     id="g42" /><g
     id="g44" /><g
     id="g46" /><g
     id="g48" /><g
     id="g50" /><g
     id="g52" /><g
     id="g54" /><g
     id="g56" /><g
     id="g58" /><g
     id="g60" /><g
     id="g62" /><g
     id="g64" /><g
     id="g66" /></svg>