<?xml version="1.0" encoding="UTF-8" standalone="no"?>
<!-- Generator: Adobe Illustrator 18.0.0, SVG Export Plug-In . SVG Version: 6.00 Build 0)  -->

<svg
   xmlns:dc="http://purl.org/dc/elements/1.1/"
   xmlns:cc="http://creativecommons.org/ns#"
   xmlns:rdf="http://www.w3.org/1999/02/22-rdf-syntax-ns#"
   xmlns:svg="http://www.w3.org/2000/svg"
   xmlns="http://www.w3.org/2000/svg"
   xmlns:sodipodi="http://sodipodi.sourceforge.net/DTD/sodipodi-0.dtd"
   xmlns:inkscape="http://www.inkscape.org/namespaces/inkscape"
   version="1.1"
   id="Capa_1"
   x="0px"
   y="0px"
   viewBox="0 0 56 56"
   style="enable-background:new 0 0 56 56;"
   xml:space="preserve"
   sodipodi:docname="poker-chip.svg"
   inkscape:version="0.92.1 r15371"><metadata
     id="metadata53"><rdf:RDF><cc:Work
         rdf:about=""><dc:format>image/svg+xml</dc:format><dc:type
           rdf:resource="http://purl.org/dc/dcmitype/StillImage" /><dc:title></dc:title></cc:Work></rdf:RDF></metadata><defs
     id="defs51" /><sodipodi:namedview
     pagecolor="#ffffff"
     bordercolor="#666666"
     borderopacity="1"
     objecttolerance="10"
     gridtolerance="10"
     guidetolerance="10"
     inkscape:pageopacity="0"
     inkscape:pageshadow="2"
     inkscape:window-width="2696"
     inkscape:window-height="1695"
     id="namedview49"
     showgrid="false"
     inkscape:zoom="8.4285714"
     inkscape:cx="7.9070911"
     inkscape:cy="45.670836"
     inkscape:window-x="0"
     inkscape:window-y="0"
     inkscape:window-maximized="0"
     inkscape:current-layer="g16" /><g
     id="g16"><circle
       style="fill:#E64C3C;"
       cx="28"
       cy="28"
       r="28"
       id="circle2" /><path
       style="fill:#3D324C;"
       d="M28,14c2.465,0,4.818,0.47,7,1.289V0.882C32.763,0.306,30.417,0,28,0s-4.763,0.306-7,0.882v14.407   C23.182,14.47,25.535,14,28,14z"
       id="path4" /><path
       style="fill:#3D324C;"
       d="M28,42c-2.465,0-4.818-0.47-7-1.289v14.407C23.237,55.694,25.583,56,28,56s4.763-0.306,7-0.882   V40.711C32.818,41.53,30.465,42,28,42z"
       id="path6" /><path
       style="fill:#3D324C;"
       d="M42,28c0,2.465-0.47,4.818-1.289,7h14.407C55.694,32.763,56,30.417,56,28s-0.306-4.763-0.882-7   H40.711C41.53,23.182,42,25.535,42,28z"
       id="path8" /><path
       style="fill:#3D324C;"
       d="M14,28c0-2.465,0.47-4.818,1.289-7H0.882C0.306,23.237,0,25.583,0,28c0,2.417,0.306,4.763,0.882,7   h14.407C14.47,32.818,14,30.465,14,28z"
       id="path10" /><path
       style="fill:#C03A2B;"
       d="M28,49C16.42,49,7,39.58,7,28S16.42,7,28,7s21,9.42,21,21S39.58,49,28,49z"
       id="path12" /><text
       xml:space="preserve"
       style="font-style:normal;font-variant:normal;font-weight:normal;font-stretch:normal;font-size:53.33333206px;line-height:1.25;font-family:'Alfa Slab One';-inkscape-font-specification:'Alfa Slab One';letter-spacing:0px;word-spacing:0px;fill:#000000;fill-opacity:1;stroke:none"
       x="9.8575478"
       y="31.335155"
       id="text862"><tspan
         sodipodi:role="line"
         id="tspan860"
         x="9.8575478"
         y="31.335155"
         style="font-size:8px;fill:#000000;fill-opacity:1">DEALER</tspan></text>
</g><g
     id="g18" /><g
     id="g20" /><g
     id="g22" /><g
     id="g24" /><g
     id="g26" /><g
     id="g28" /><g
     id="g30" /><g
     id="g32" /><g
     id="g34" /><g
     id="g36" /><g
     id="g38" /><g
     id="g40" /><g
     id="g42" /><g
     id="g44" /><g
     id="g46" /></svg>