<?xml version="1.0" encoding="UTF-8" standalone="no"?>
<!-- Generator: Adobe Illustrator 19.0.0, SVG Export Plug-In . SVG Version: 6.00 Build 0)  -->

<svg
   xmlns:dc="http://purl.org/dc/elements/1.1/"
   xmlns:cc="http://creativecommons.org/ns#"
   xmlns:rdf="http://www.w3.org/1999/02/22-rdf-syntax-ns#"
   xmlns:svg="http://www.w3.org/2000/svg"
   xmlns="http://www.w3.org/2000/svg"
   xmlns:sodipodi="http://sodipodi.sourceforge.net/DTD/sodipodi-0.dtd"
   xmlns:inkscape="http://www.inkscape.org/namespaces/inkscape"
   version="1.1"
   id="Layer_1"
   x="0px"
   y="0px"
   viewBox="0 0 87 113"
   xml:space="preserve"
   sodipodi:docname="Qc.svg"
   width="87"
   height="113"
   inkscape:version="0.92.1 r15371"><metadata
     id="metadata98"><rdf:RDF><cc:Work
         rdf:about=""><dc:format>image/svg+xml</dc:format><dc:type
           rdf:resource="http://purl.org/dc/dcmitype/StillImage" /><dc:title></dc:title></cc:Work></rdf:RDF></metadata><defs
     id="defs96" /><sodipodi:namedview
     pagecolor="#ffffff"
     bordercolor="#666666"
     borderopacity="1"
     objecttolerance="10"
     gridtolerance="10"
     guidetolerance="10"
     inkscape:pageopacity="0"
     inkscape:pageshadow="2"
     inkscape:window-width="1967"
     inkscape:window-height="1083"
     id="namedview94"
     showgrid="false"
     inkscape:zoom="7.375"
     inkscape:cx="36.113346"
     inkscape:cy="117.09619"
     inkscape:window-x="0"
     inkscape:window-y="0"
     inkscape:window-maximized="0"
     inkscape:current-layer="g61" /><g
     id="g61"
     transform="matrix(0.19959111,0,0,0.1953125,-7.5953242,6.5)"><path
       style="fill:#e6eef4;stroke:#000000;stroke-opacity:1;stroke-width:6.58427158;stroke-miterlimit:4;stroke-dasharray:none"
       d="M 423.724,0 H 88.276 C 78.522,0 70.621,7.901 70.621,17.655 v 476.69 c 0,9.754 7.901,17.655 17.655,17.655 h 335.448 c 9.754,0 17.655,-7.901 17.655,-17.655 V 17.655 C 441.379,7.901 433.479,0 423.724,0"
       id="path51"
       inkscape:connector-curvature="0" /><g
       id="g59"><path
         d="m 282.483,370.759 c 0,21.91 6.038,43.82 8.13,50.732 0.344,1.139 -0.521,2.233 -1.704,2.233 h -65.827 c -1.183,0 -2.039,-1.095 -1.704,-2.225 2.074,-6.947 8.139,-29.096 8.139,-50.741 -8.73,6.321 -18.803,9.578 -29.917,9.578 -32.274,0 -60.275,-27.101 -58.253,-59.78 1.13,-18.379 12.835,-34.145 28.425,-43.926 15.651,-9.825 30.164,-10.611 43.14,-7.459 -8.298,-9.825 -13.312,-22.502 -13.312,-36.361 0,-34.834 31.576,-62.296 67.663,-55.314 22.59,4.361 40.536,22.925 44.332,45.612 2.948,17.602 -2.304,33.986 -12.5,46.062 13.065,-3.169 27.692,-2.348 43.467,7.662 15.519,9.852 27.18,25.582 28.248,43.926 1.889,32.591 -26.2,59.577 -58.403,59.577 -10.963,0.002 -21.361,-3.388 -29.924,-9.576"
         id="path53"
         inkscape:connector-curvature="0" /><path
         d="m 97.103,61.793 v 52.966 c 0,19.441 15.869,35.31 35.31,35.31 19.441,0 35.31,-15.869 35.31,-35.31 V 61.793 c 0,-19.441 -15.869,-35.31 -35.31,-35.31 -19.441,0 -35.31,15.869 -35.31,35.31 z m 52.966,0 v 52.966 c 0,9.69 -7.965,17.655 -17.655,17.655 -9.69,0 -17.655,-7.965 -17.655,-17.655 V 61.793 c 0,-9.69 7.965,-17.655 17.655,-17.655 9.69,0 17.655,7.965 17.655,17.655 z"
         id="path55"
         inkscape:connector-curvature="0" /><path
         d="m 162.428,148.303 c 3.9,2.925 9.433,2.135 12.359,-1.766 2.925,-3.9 2.135,-9.433 -1.766,-12.359 l -35.31,-26.483 c -3.9,-2.925 -9.433,-2.135 -12.359,1.766 -2.925,3.9 -2.135,9.433 1.766,12.359 z"
         id="path57"
         inkscape:connector-curvature="0" /></g></g><g
     id="g63"
     transform="translate(0,-399)" /><g
     id="g65"
     transform="translate(0,-399)" /><g
     id="g67"
     transform="translate(0,-399)" /><g
     id="g69"
     transform="translate(0,-399)" /><g
     id="g71"
     transform="translate(0,-399)" /><g
     id="g73"
     transform="translate(0,-399)" /><g
     id="g75"
     transform="translate(0,-399)" /><g
     id="g77"
     transform="translate(0,-399)" /><g
     id="g79"
     transform="translate(0,-399)" /><g
     id="g81"
     transform="translate(0,-399)" /><g
     id="g83"
     transform="translate(0,-399)" /><g
     id="g85"
     transform="translate(0,-399)" /><g
     id="g87"
     transform="translate(0,-399)" /><g
     id="g89"
     transform="translate(0,-399)" /><g
     id="g91"
     transform="translate(0,-399)" /></svg>