<?xml version="1.0" encoding="UTF-8" standalone="no"?>
<!-- Generator: Adobe Illustrator 19.0.0, SVG Export Plug-In . SVG Version: 6.00 Build 0)  -->

<svg
   xmlns:dc="http://purl.org/dc/elements/1.1/"
   xmlns:cc="http://creativecommons.org/ns#"
   xmlns:rdf="http://www.w3.org/1999/02/22-rdf-syntax-ns#"
   xmlns:svg="http://www.w3.org/2000/svg"
   xmlns="http://www.w3.org/2000/svg"
   xmlns:sodipodi="http://sodipodi.sourceforge.net/DTD/sodipodi-0.dtd"
   xmlns:inkscape="http://www.inkscape.org/namespaces/inkscape"
   version="1.1"
   id="Layer_1"
   x="0px"
   y="0px"
   viewBox="0 0 87 113"
   xml:space="preserve"
   sodipodi:docname="Qd.svg"
   width="87"
   height="113"
   inkscape:version="0.92.1 r15371"><metadata
     id="metadata147"><rdf:RDF><cc:Work
         rdf:about=""><dc:format>image/svg+xml</dc:format><dc:type
           rdf:resource="http://purl.org/dc/dcmitype/StillImage" /><dc:title></dc:title></cc:Work></rdf:RDF></metadata><defs
     id="defs145" /><sodipodi:namedview
     pagecolor="#ffffff"
     bordercolor="#666666"
     borderopacity="1"
     objecttolerance="10"
     gridtolerance="10"
     guidetolerance="10"
     inkscape:pageopacity="0"
     inkscape:pageshadow="2"
     inkscape:window-width="1471"
     inkscape:window-height="839"
     id="namedview143"
     showgrid="false"
     inkscape:zoom="3.6875"
     inkscape:cx="23.513082"
     inkscape:cy="118.60574"
     inkscape:window-x="0"
     inkscape:window-y="0"
     inkscape:window-maximized="0"
     inkscape:current-layer="g110" /><g
     id="g110"
     transform="matrix(0.19959111,0,0,0.1953125,-7.5953242,6.5)"><path
       style="fill:#e6eef4;stroke:#000000;stroke-opacity:1;stroke-width:6.58427158;stroke-miterlimit:4;stroke-dasharray:none"
       d="M 423.724,0 H 88.276 C 78.522,0 70.621,7.901 70.621,17.655 v 476.69 c 0,9.754 7.901,17.655 17.655,17.655 h 335.448 c 9.754,0 17.655,-7.901 17.655,-17.655 V 17.655 C 441.379,7.901 433.479,0 423.724,0"
       id="path100"
       inkscape:connector-curvature="0" /><g
       id="g108"><polygon
         style="fill:#d71e00"
         points="256,441.379 361.931,308.966 256,176.552 150.069,308.966 "
         id="polygon102" /><path
         style="fill:#d71e00"
         d="m 97.103,61.793 v 52.966 c 0,19.441 15.869,35.31 35.31,35.31 19.441,0 35.31,-15.869 35.31,-35.31 V 61.793 c 0,-19.441 -15.869,-35.31 -35.31,-35.31 -19.441,0 -35.31,15.869 -35.31,35.31 z m 52.966,0 v 52.966 c 0,9.69 -7.965,17.655 -17.655,17.655 -9.69,0 -17.655,-7.965 -17.655,-17.655 V 61.793 c 0,-9.69 7.965,-17.655 17.655,-17.655 9.69,0 17.655,7.965 17.655,17.655 z"
         id="path104"
         inkscape:connector-curvature="0" /><path
         style="fill:#d71e00"
         d="m 162.428,148.303 c 3.9,2.925 9.433,2.135 12.359,-1.766 2.925,-3.9 2.135,-9.433 -1.766,-12.359 l -35.31,-26.483 c -3.9,-2.925 -9.433,-2.135 -12.359,1.766 -2.925,3.9 -2.135,9.433 1.766,12.359 z"
         id="path106"
         inkscape:connector-curvature="0" /></g></g><g
     id="g112"
     transform="translate(0,-399)" /><g
     id="g114"
     transform="translate(0,-399)" /><g
     id="g116"
     transform="translate(0,-399)" /><g
     id="g118"
     transform="translate(0,-399)" /><g
     id="g120"
     transform="translate(0,-399)" /><g
     id="g122"
     transform="translate(0,-399)" /><g
     id="g124"
     transform="translate(0,-399)" /><g
     id="g126"
     transform="translate(0,-399)" /><g
     id="g128"
     transform="translate(0,-399)" /><g
     id="g130"
     transform="translate(0,-399)" /><g
     id="g132"
     transform="translate(0,-399)" /><g
     id="g134"
     transform="translate(0,-399)" /><g
     id="g136"
     transform="translate(0,-399)" /><g
     id="g138"
     transform="translate(0,-399)" /><g
     id="g140"
     transform="translate(0,-399)" /></svg>