<?xml version="1.0" encoding="UTF-8" standalone="no"?>
<!-- Generator: Adobe Illustrator 19.0.0, SVG Export Plug-In . SVG Version: 6.00 Build 0)  -->

<svg
   xmlns:dc="http://purl.org/dc/elements/1.1/"
   xmlns:cc="http://creativecommons.org/ns#"
   xmlns:rdf="http://www.w3.org/1999/02/22-rdf-syntax-ns#"
   xmlns:svg="http://www.w3.org/2000/svg"
   xmlns="http://www.w3.org/2000/svg"
   xmlns:sodipodi="http://sodipodi.sourceforge.net/DTD/sodipodi-0.dtd"
   xmlns:inkscape="http://www.inkscape.org/namespaces/inkscape"
   version="1.1"
   id="Layer_1"
   x="0px"
   y="0px"
   viewBox="0 0 87 113"
   xml:space="preserve"
   sodipodi:docname="poker (37).svg"
   width="87"
   height="113"
   inkscape:version="0.92.1 r15371"><metadata
     id="metadata49"><rdf:RDF><cc:Work
         rdf:about=""><dc:format>image/svg+xml</dc:format><dc:type
           rdf:resource="http://purl.org/dc/dcmitype/StillImage" /><dc:title></dc:title></cc:Work></rdf:RDF></metadata><defs
     id="defs47" /><sodipodi:namedview
     pagecolor="#ffffff"
     bordercolor="#666666"
     borderopacity="1"
     objecttolerance="10"
     gridtolerance="10"
     guidetolerance="10"
     inkscape:pageopacity="0"
     inkscape:pageshadow="2"
     inkscape:window-width="1922"
     inkscape:window-height="1063"
     id="namedview45"
     showgrid="false"
     inkscape:zoom="0.4609375"
     inkscape:cx="-135.66497"
     inkscape:cy="256"
     inkscape:window-x="0"
     inkscape:window-y="0"
     inkscape:window-maximized="0"
     inkscape:current-layer="Layer_1" /><g
     id="g12"
     transform="matrix(0.19959111,0,0,0.1953125,-7.5953242,6.5)"><path
       style="fill:#e6eef4"
       d="M 423.724,0 H 88.276 C 78.522,0 70.621,7.901 70.621,17.655 v 476.69 c 0,9.754 7.901,17.655 17.655,17.655 h 335.448 c 9.754,0 17.655,-7.901 17.655,-17.655 V 17.655 C 441.379,7.901 433.479,0 423.724,0"
       id="path2"
       inkscape:connector-curvature="0" /><g
       id="g10"><path
         style="fill:#d71e00"
         d="m 256,238.345 c 9.507,-24.214 29.625,-44.138 54.881,-44.138 21.257,0 40.201,9.993 52.966,26.483 16.013,20.692 27.33,66.754 -7.715,101.8 C 338.353,340.268 256,423.724 256,423.724 c 0,0 -82.353,-83.456 -100.131,-101.235 -35.046,-35.046 -23.729,-81.108 -7.715,-101.8 12.765,-16.49 31.709,-26.483 52.966,-26.483 25.255,0.001 45.373,19.925 54.88,44.139"
         id="path4"
         inkscape:connector-curvature="0" /><path
         style="fill:#d71e00"
         d="m 132.416,150.071 c 19.441,0 35.31,-15.869 35.31,-35.31 V 61.795 c 0,-4.875 -3.952,-8.828 -8.828,-8.828 -4.876,0 -8.828,3.952 -8.828,8.828 v 52.966 c 0,9.69 -7.965,17.655 -17.655,17.655 -7.497,0 -14.177,-4.821 -16.662,-11.83 -1.629,-4.595 -6.675,-7 -11.27,-5.371 -4.595,1.629 -7,6.675 -5.371,11.27 4.962,13.99 18.259,23.586 33.304,23.586 z"
         id="path6"
         inkscape:connector-curvature="0" /><path
         style="fill:#d71e00"
         d="m 132.414,26.483 c -19.503,0 -35.31,15.808 -35.31,35.31 0,19.502 15.808,35.31 35.31,35.31 19.502,0 35.31,-15.808 35.31,-35.31 0,-19.502 -15.808,-35.31 -35.31,-35.31 z m 0,52.965 c -9.752,0 -17.655,-7.903 -17.655,-17.655 0,-9.752 7.903,-17.655 17.655,-17.655 9.752,0 17.655,7.903 17.655,17.655 0,9.752 -7.903,17.655 -17.655,17.655 z"
         id="path8"
         inkscape:connector-curvature="0" /></g></g><g
     id="g14"
     transform="translate(0,-399)" /><g
     id="g16"
     transform="translate(0,-399)" /><g
     id="g18"
     transform="translate(0,-399)" /><g
     id="g20"
     transform="translate(0,-399)" /><g
     id="g22"
     transform="translate(0,-399)" /><g
     id="g24"
     transform="translate(0,-399)" /><g
     id="g26"
     transform="translate(0,-399)" /><g
     id="g28"
     transform="translate(0,-399)" /><g
     id="g30"
     transform="translate(0,-399)" /><g
     id="g32"
     transform="translate(0,-399)" /><g
     id="g34"
     transform="translate(0,-399)" /><g
     id="g36"
     transform="translate(0,-399)" /><g
     id="g38"
     transform="translate(0,-399)" /><g
     id="g40"
     transform="translate(0,-399)" /><g
     id="g42"
     transform="translate(0,-399)" /></svg>