<?xml version="1.0" encoding="UTF-8" standalone="no"?>
<!-- Generator: Adobe Illustrator 19.0.0, SVG Export Plug-In . SVG Version: 6.00 Build 0)  -->

<svg
   xmlns:dc="http://purl.org/dc/elements/1.1/"
   xmlns:cc="http://creativecommons.org/ns#"
   xmlns:rdf="http://www.w3.org/1999/02/22-rdf-syntax-ns#"
   xmlns:svg="http://www.w3.org/2000/svg"
   xmlns="http://www.w3.org/2000/svg"
   xmlns:sodipodi="http://sodipodi.sourceforge.net/DTD/sodipodi-0.dtd"
   xmlns:inkscape="http://www.inkscape.org/namespaces/inkscape"
   version="1.1"
   id="Layer_1"
   x="0px"
   y="0px"
   viewBox="0 0 87 113"
   xml:space="preserve"
   sodipodi:docname="poker (44).svg"
   width="87"
   height="113"
   inkscape:version="0.92.1 r15371"><metadata
     id="metadata49"><rdf:RDF><cc:Work
         rdf:about=""><dc:format>image/svg+xml</dc:format><dc:type
           rdf:resource="http://purl.org/dc/dcmitype/StillImage" /><dc:title></dc:title></cc:Work></rdf:RDF></metadata><defs
     id="defs47" /><sodipodi:namedview
     pagecolor="#ffffff"
     bordercolor="#666666"
     borderopacity="1"
     objecttolerance="10"
     gridtolerance="10"
     guidetolerance="10"
     inkscape:pageopacity="0"
     inkscape:pageshadow="2"
     inkscape:window-width="2125"
     inkscape:window-height="1150"
     id="namedview45"
     showgrid="false"
     inkscape:zoom="0.4609375"
     inkscape:cx="27.965205"
     inkscape:cy="256"
     inkscape:window-x="0"
     inkscape:window-y="0"
     inkscape:window-maximized="0"
     inkscape:current-layer="Layer_1" /><g
     id="g12"
     transform="matrix(0.19959111,0,0,0.1953125,-7.5953242,6.5)"><path
       style="fill:#e6eef4"
       d="M 423.724,0 H 88.276 C 78.522,0 70.621,7.901 70.621,17.655 v 476.69 c 0,9.754 7.901,17.655 17.655,17.655 h 335.448 c 9.754,0 17.655,-7.901 17.655,-17.655 V 17.655 C 441.379,7.901 433.479,0 423.724,0"
       id="path2"
       inkscape:connector-curvature="0" /><g
       id="g10"><polygon
         style="fill:#d71e00"
         points="256,176.552 150.069,308.966 256,441.379 361.931,308.966 "
         id="polygon4" /><path
         style="fill:#d71e00"
         d="m 132.414,141.241 c 19.441,0 35.31,-15.869 35.31,-35.31 V 35.31 c 0,-4.875 -3.952,-8.828 -8.828,-8.828 -4.876,0 -8.828,3.952 -8.828,8.828 v 70.621 c 0,9.69 -7.965,17.655 -17.655,17.655 -9.69,0 -17.655,-7.965 -17.655,-17.655 0,-4.875 -3.952,-8.828 -8.828,-8.828 -4.875,0 -8.828,3.952 -8.828,8.828 10e-4,19.441 15.871,35.31 35.312,35.31 z"
         id="path6"
         inkscape:connector-curvature="0" /><path
         style="fill:#d71e00"
         d="m 176.552,44.138 c 4.875,0 8.828,-3.952 8.828,-8.828 0,-4.876 -3.952,-8.828 -8.828,-8.828 h -35.31 c -4.875,0 -8.828,3.952 -8.828,8.828 0,4.876 3.952,8.828 8.828,8.828 z"
         id="path8"
         inkscape:connector-curvature="0" /></g></g><g
     id="g14"
     transform="translate(0,-399)" /><g
     id="g16"
     transform="translate(0,-399)" /><g
     id="g18"
     transform="translate(0,-399)" /><g
     id="g20"
     transform="translate(0,-399)" /><g
     id="g22"
     transform="translate(0,-399)" /><g
     id="g24"
     transform="translate(0,-399)" /><g
     id="g26"
     transform="translate(0,-399)" /><g
     id="g28"
     transform="translate(0,-399)" /><g
     id="g30"
     transform="translate(0,-399)" /><g
     id="g32"
     transform="translate(0,-399)" /><g
     id="g34"
     transform="translate(0,-399)" /><g
     id="g36"
     transform="translate(0,-399)" /><g
     id="g38"
     transform="translate(0,-399)" /><g
     id="g40"
     transform="translate(0,-399)" /><g
     id="g42"
     transform="translate(0,-399)" /></svg>